<mxfile host="app.diagrams.net" modified="2023-10-06T17:30:12.115Z" agent="Mozilla/5.0 (Macintosh; Intel Mac OS X 10_15_7) AppleWebKit/537.36 (KHTML, like Gecko) Chrome/117.0.0.0 Safari/537.36" version="22.0.2" etag="aZ2NXxhwb2Ag1THqTEbB" type="github">
  <diagram name="Page-1" id="QjGPZhkq3QWjx9Mz5ctI">
    <mxGraphModel>
      <root>
        <mxCell id="0" />
        <mxCell id="1" parent="0" />
      </root>
    </mxGraphModel>
  </diagram>
</mxfile>
